<svg xmlns="http://www.w3.org/2000/svg" viewBox="0 0 1050 620"><rect width="100%" height="100%" fill="white"/><text x="525.0" y="38" text-anchor="middle" font-size="27" font-weight="700">HIGH: median of 10 offshore ROIs</text><line x1="245" y1="72" x2="290" y2="72" stroke="#0f766e" stroke-width="6"/><text x="300" y="79" font-size="17">Final retained product: Cycle 0</text><line x1="620" y1="72" x2="665" y2="72" stroke="#d97706" stroke-width="6" stroke-dasharray="12 8"/><text x="675" y="79" font-size="17">Selected possible HydroLight water</text><line x1="105" y1="535.0" x2="1015" y2="535.0" stroke="#dbe3ea"/><text x="93" y="541.0" text-anchor="end" font-size="16">0.001</text><line x1="105" y1="452.0" x2="1015" y2="452.0" stroke="#dbe3ea"/><text x="93" y="458.0" text-anchor="end" font-size="16">0.013</text><line x1="105" y1="369.0" x2="1015" y2="369.0" stroke="#dbe3ea"/><text x="93" y="375.0" text-anchor="end" font-size="16">0.026</text><line x1="105" y1="286.0" x2="1015" y2="286.0" stroke="#dbe3ea"/><text x="93" y="292.0" text-anchor="end" font-size="16">0.039</text><line x1="105" y1="203.0" x2="1015" y2="203.0" stroke="#dbe3ea"/><text x="93" y="209.0" text-anchor="end" font-size="16">0.051</text><line x1="105" y1="120.0" x2="1015" y2="120.0" stroke="#dbe3ea"/><text x="93" y="126.0" text-anchor="end" font-size="16">0.064</text><line x1="105" y1="535" x2="1015" y2="535" stroke="#111" stroke-width="2"/><line x1="105" y1="120" x2="105" y2="535" stroke="#111" stroke-width="2"/><text x="105.0" y="565" text-anchor="middle" font-size="15">492</text><text x="270.9" y="565" text-anchor="middle" font-size="15">560</text><text x="527.1" y="565" text-anchor="middle" font-size="15">665</text><text x="622.2" y="565" text-anchor="middle" font-size="15">704</text><text x="710.0" y="565" text-anchor="middle" font-size="15">740</text><text x="814.9" y="565" text-anchor="middle" font-size="15">783</text><text x="936.9" y="565" text-anchor="middle" font-size="15">833</text><text x="1015.0" y="565" text-anchor="middle" font-size="15">865</text><polyline points="105.0,242.5 270.9,347.4 527.1,455.7 622.2,441.1 710.0,448.8 814.9,462.9 936.9,482.5 1015.0,489.0" fill="none" stroke="#d97706" stroke-width="5" stroke-dasharray="12 8"/><rect x="99.0" y="236.5" width="12" height="12" fill="#d97706"/><rect x="264.9" y="341.4" width="12" height="12" fill="#d97706"/><rect x="521.1" y="449.7" width="12" height="12" fill="#d97706"/><rect x="616.2" y="435.1" width="12" height="12" fill="#d97706"/><rect x="704.0" y="442.8" width="12" height="12" fill="#d97706"/><rect x="808.9" y="456.9" width="12" height="12" fill="#d97706"/><rect x="930.9" y="476.5" width="12" height="12" fill="#d97706"/><rect x="1009.0" y="483.0" width="12" height="12" fill="#d97706"/><polyline points="105.0,218.6 270.9,330.4 527.1,418.4 622.2,397.7 710.0,425.3 814.9,424.6 936.9,470.9 1015.0,465.5" fill="none" stroke="#0f766e" stroke-width="5"/><circle cx="105.0" cy="218.6" r="6" fill="#0f766e"/><circle cx="270.9" cy="330.4" r="6" fill="#0f766e"/><circle cx="527.1" cy="418.4" r="6" fill="#0f766e"/><circle cx="622.2" cy="397.7" r="6" fill="#0f766e"/><circle cx="710.0" cy="425.3" r="6" fill="#0f766e"/><circle cx="814.9" cy="424.6" r="6" fill="#0f766e"/><circle cx="936.9" cy="470.9" r="6" fill="#0f766e"/><circle cx="1015.0" cy="465.5" r="6" fill="#0f766e"/><text x="525.0" y="595" text-anchor="middle" font-size="20">Wavelength (nm)</text><text x="28" y="327.5" text-anchor="middle" font-size="20" transform="rotate(-90 28 327.5)">BOA reflectance</text></svg>