<svg xmlns="http://www.w3.org/2000/svg" viewBox="0 0 1050 620"><rect width="100%" height="100%" fill="white"/><text x="525.0" y="38" text-anchor="middle" font-size="27" font-weight="700">MEDIUM: median of 10 offshore ROIs</text><line x1="245" y1="72" x2="290" y2="72" stroke="#0f766e" stroke-width="6"/><text x="300" y="79" font-size="17">Final retained product: Cycle 0</text><line x1="620" y1="72" x2="665" y2="72" stroke="#d97706" stroke-width="6" stroke-dasharray="12 8"/><text x="675" y="79" font-size="17">Selected possible HydroLight water</text><line x1="105" y1="535.0" x2="1015" y2="535.0" stroke="#dbe3ea"/><text x="93" y="541.0" text-anchor="end" font-size="16">0.001</text><line x1="105" y1="452.0" x2="1015" y2="452.0" stroke="#dbe3ea"/><text x="93" y="458.0" text-anchor="end" font-size="16">0.009</text><line x1="105" y1="369.0" x2="1015" y2="369.0" stroke="#dbe3ea"/><text x="93" y="375.0" text-anchor="end" font-size="16">0.018</text><line x1="105" y1="286.0" x2="1015" y2="286.0" stroke="#dbe3ea"/><text x="93" y="292.0" text-anchor="end" font-size="16">0.027</text><line x1="105" y1="203.0" x2="1015" y2="203.0" stroke="#dbe3ea"/><text x="93" y="209.0" text-anchor="end" font-size="16">0.036</text><line x1="105" y1="120.0" x2="1015" y2="120.0" stroke="#dbe3ea"/><text x="93" y="126.0" text-anchor="end" font-size="16">0.045</text><line x1="105" y1="535" x2="1015" y2="535" stroke="#111" stroke-width="2"/><line x1="105" y1="120" x2="105" y2="535" stroke="#111" stroke-width="2"/><text x="105.0" y="565" text-anchor="middle" font-size="15">492</text><text x="270.9" y="565" text-anchor="middle" font-size="15">560</text><text x="527.1" y="565" text-anchor="middle" font-size="15">665</text><text x="622.2" y="565" text-anchor="middle" font-size="15">704</text><text x="710.0" y="565" text-anchor="middle" font-size="15">740</text><text x="814.9" y="565" text-anchor="middle" font-size="15">783</text><text x="936.9" y="565" text-anchor="middle" font-size="15">833</text><text x="1015.0" y="565" text-anchor="middle" font-size="15">865</text><polyline points="105.0,224.0 270.9,308.3 527.1,453.8 622.2,437.4 710.0,451.1 814.9,466.0 936.9,481.8 1015.0,483.4" fill="none" stroke="#d97706" stroke-width="5" stroke-dasharray="12 8"/><rect x="99.0" y="218.0" width="12" height="12" fill="#d97706"/><rect x="264.9" y="302.3" width="12" height="12" fill="#d97706"/><rect x="521.1" y="447.8" width="12" height="12" fill="#d97706"/><rect x="616.2" y="431.4" width="12" height="12" fill="#d97706"/><rect x="704.0" y="445.1" width="12" height="12" fill="#d97706"/><rect x="808.9" y="460.0" width="12" height="12" fill="#d97706"/><rect x="930.9" y="475.8" width="12" height="12" fill="#d97706"/><rect x="1009.0" y="477.4" width="12" height="12" fill="#d97706"/><polyline points="105.0,212.7 270.9,333.4 527.1,442.9 622.2,423.1 710.0,449.8 814.9,459.4 936.9,491.0 1015.0,481.3" fill="none" stroke="#0f766e" stroke-width="5"/><circle cx="105.0" cy="212.7" r="6" fill="#0f766e"/><circle cx="270.9" cy="333.4" r="6" fill="#0f766e"/><circle cx="527.1" cy="442.9" r="6" fill="#0f766e"/><circle cx="622.2" cy="423.1" r="6" fill="#0f766e"/><circle cx="710.0" cy="449.8" r="6" fill="#0f766e"/><circle cx="814.9" cy="459.4" r="6" fill="#0f766e"/><circle cx="936.9" cy="491.0" r="6" fill="#0f766e"/><circle cx="1015.0" cy="481.3" r="6" fill="#0f766e"/><text x="525.0" y="595" text-anchor="middle" font-size="20">Wavelength (nm)</text><text x="28" y="327.5" text-anchor="middle" font-size="20" transform="rotate(-90 28 327.5)">BOA reflectance</text></svg>