<svg xmlns="http://www.w3.org/2000/svg" viewBox="0 0 1050 620"><rect width="100%" height="100%" fill="white"/><text x="525.0" y="38" text-anchor="middle" font-size="27" font-weight="700">MEDIUM: median of 10 offshore ROIs</text><line x1="280" y1="72" x2="325" y2="72" stroke="#334155" stroke-width="6"/><text x="335" y="79" font-size="17">Original L2A before correction</text><line x1="585" y1="72" x2="630" y2="72" stroke="#0f766e" stroke-width="6"/><text x="640" y="79" font-size="17">Cycle 0 after first correction</text><line x1="105" y1="535.0" x2="1015" y2="535.0" stroke="#dbe3ea"/><text x="93" y="541.0" text-anchor="end" font-size="16">-0.002</text><line x1="105" y1="452.0" x2="1015" y2="452.0" stroke="#dbe3ea"/><text x="93" y="458.0" text-anchor="end" font-size="16">0.007</text><line x1="105" y1="369.0" x2="1015" y2="369.0" stroke="#dbe3ea"/><text x="93" y="375.0" text-anchor="end" font-size="16">0.016</text><line x1="105" y1="286.0" x2="1015" y2="286.0" stroke="#dbe3ea"/><text x="93" y="292.0" text-anchor="end" font-size="16">0.026</text><line x1="105" y1="203.0" x2="1015" y2="203.0" stroke="#dbe3ea"/><text x="93" y="209.0" text-anchor="end" font-size="16">0.035</text><line x1="105" y1="120.0" x2="1015" y2="120.0" stroke="#dbe3ea"/><text x="93" y="126.0" text-anchor="end" font-size="16">0.044</text><line x1="105" y1="535" x2="1015" y2="535" stroke="#111" stroke-width="2"/><line x1="105" y1="120" x2="105" y2="535" stroke="#111" stroke-width="2"/><text x="105.0" y="565" text-anchor="middle" font-size="15">492</text><text x="270.9" y="565" text-anchor="middle" font-size="15">560</text><text x="527.1" y="565" text-anchor="middle" font-size="15">665</text><text x="622.2" y="565" text-anchor="middle" font-size="15">704</text><text x="710.0" y="565" text-anchor="middle" font-size="15">740</text><text x="814.9" y="565" text-anchor="middle" font-size="15">783</text><text x="936.9" y="565" text-anchor="middle" font-size="15">833</text><text x="1015.0" y="565" text-anchor="middle" font-size="15">865</text><polyline points="105.0,178.9 270.9,271.0 527.1,402.6 622.2,390.0 710.0,419.4 814.9,412.8 936.9,452.5 1015.0,442.3" fill="none" stroke="#334155" stroke-width="5"/><circle cx="105.0" cy="178.9" r="6" fill="#334155"/><circle cx="270.9" cy="271.0" r="6" fill="#334155"/><circle cx="527.1" cy="402.6" r="6" fill="#334155"/><circle cx="622.2" cy="390.0" r="6" fill="#334155"/><circle cx="710.0" cy="419.4" r="6" fill="#334155"/><circle cx="814.9" cy="412.8" r="6" fill="#334155"/><circle cx="936.9" cy="452.5" r="6" fill="#334155"/><circle cx="1015.0" cy="442.3" r="6" fill="#334155"/><polyline points="105.0,214.2 270.9,309.7 527.1,447.2 622.2,437.3 710.0,467.3 814.9,461.5 936.9,499.8 1015.0,491.2" fill="none" stroke="#0f766e" stroke-width="5"/><circle cx="105.0" cy="214.2" r="6" fill="#0f766e"/><circle cx="270.9" cy="309.7" r="6" fill="#0f766e"/><circle cx="527.1" cy="447.2" r="6" fill="#0f766e"/><circle cx="622.2" cy="437.3" r="6" fill="#0f766e"/><circle cx="710.0" cy="467.3" r="6" fill="#0f766e"/><circle cx="814.9" cy="461.5" r="6" fill="#0f766e"/><circle cx="936.9" cy="499.8" r="6" fill="#0f766e"/><circle cx="1015.0" cy="491.2" r="6" fill="#0f766e"/><text x="525.0" y="595" text-anchor="middle" font-size="20">Wavelength (nm)</text><text x="28" y="327.5" text-anchor="middle" font-size="20" transform="rotate(-90 28 327.5)">BOA reflectance</text></svg>